<svg xmlns="http://www.w3.org/2000/svg" width="16.8" height="16.8" viewBox="0 0 16.8 16.8">
  <g id="iconfinder_Instagram_glyph_svg_5335781" transform="translate(0 -0.162)">
    <path id="Path_59" data-name="Path 59" d="M8.4.162c-2.281,0-2.567.01-3.463.051A6.166,6.166,0,0,0,2.9.6a4.117,4.117,0,0,0-1.488.969A4.117,4.117,0,0,0,.441,3.059,6.165,6.165,0,0,0,.051,5.1C.01,5.994,0,6.28,0,8.562s.01,2.567.051,3.463a6.165,6.165,0,0,0,.39,2.039,4.118,4.118,0,0,0,.969,1.488,4.117,4.117,0,0,0,1.488.969,6.166,6.166,0,0,0,2.039.39c.9.041,1.182.051,3.463.051s2.567-.01,3.463-.051a6.166,6.166,0,0,0,2.039-.39,4.3,4.3,0,0,0,2.457-2.457,6.166,6.166,0,0,0,.39-2.039c.041-.9.051-1.182.051-3.463S16.79,5.994,16.75,5.1a6.166,6.166,0,0,0-.39-2.039,4.117,4.117,0,0,0-.969-1.488A4.118,4.118,0,0,0,13.9.6a6.165,6.165,0,0,0-2.039-.39C10.967.171,10.681.162,8.4.162Zm0,1.514c2.243,0,2.509.009,3.394.049a4.649,4.649,0,0,1,1.56.289,2.6,2.6,0,0,1,.966.628,2.6,2.6,0,0,1,.628.966,4.647,4.647,0,0,1,.289,1.56c.04.886.049,1.151.049,3.394s-.009,2.509-.049,3.394a4.647,4.647,0,0,1-.289,1.56,2.782,2.782,0,0,1-1.594,1.594,4.647,4.647,0,0,1-1.56.289c-.886.04-1.151.049-3.394.049S5.891,15.44,5.006,15.4a4.647,4.647,0,0,1-1.56-.289,2.6,2.6,0,0,1-.966-.628,2.6,2.6,0,0,1-.628-.966,4.648,4.648,0,0,1-.289-1.56c-.04-.886-.049-1.151-.049-3.394s.009-2.509.049-3.394a4.648,4.648,0,0,1,.289-1.56,2.6,2.6,0,0,1,.628-.966,2.6,2.6,0,0,1,.966-.628,4.649,4.649,0,0,1,1.56-.289C5.891,1.684,6.157,1.675,8.4,1.675Z" transform="translate(0 0)" fill="#bdc3c8"/>
    <path id="Path_60" data-name="Path 60" d="M128.854,131.815a2.8,2.8,0,1,1,2.8-2.8A2.8,2.8,0,0,1,128.854,131.815Zm0-7.114a4.314,4.314,0,1,0,4.313,4.314A4.314,4.314,0,0,0,128.854,124.7Z" transform="translate(-120.454 -120.454)" fill="#bdc3c8"/>
    <path id="Path_61" data-name="Path 61" d="M363.948,89.8a1.008,1.008,0,1,1-1.008-1.008A1.008,1.008,0,0,1,363.948,89.8Z" transform="translate(-350.056 -85.719)" fill="#bdc3c8"/>
  </g>
</svg>
