<svg xmlns="http://www.w3.org/2000/svg" xmlns:xlink="http://www.w3.org/1999/xlink" width="200" height="30" viewBox="0 0 200 30">
  <defs>
    <linearGradient id="linear-gradient" x1="0.2" y1="0.946" x2="0.842" y2="0.054" gradientUnits="objectBoundingBox">
      <stop offset="0" stop-color="#fec053"/>
      <stop offset="0.327" stop-color="#f2203e"/>
      <stop offset="0.648" stop-color="#b729a8"/>
      <stop offset="1" stop-color="#5342d6"/>
    </linearGradient>
    <clipPath id="clip-_200X30">
      <rect width="200" height="30"/>
    </clipPath>
  </defs>
  <g id="_200X30" data-name="200X30" clip-path="url(#clip-_200X30)">
    <g id="Group_48" data-name="Group 48" transform="translate(0.996 1)">
      <path id="Union_2" data-name="Union 2" d="M2.358,21.569a13.82,13.82,0,1,1,5.628,4.815L.66,28.438Z" transform="translate(0 0)" stroke="rgba(0,0,0,0)" stroke-miterlimit="10" stroke-width="1" fill="url(#linear-gradient)"/>
      <g id="Group_23" data-name="Group 23" transform="translate(3.801 9.54)">
        <g id="Group_18" data-name="Group 18" transform="translate(0 0)">
          <path id="Path_10" data-name="Path 10" d="M74.105,92.063a28.4,28.4,0,0,1-11.528,0,5.323,5.323,0,0,1-3.034-2.142A5.935,5.935,0,0,1,58.3,86.481h0a4.192,4.192,0,0,1,1.266-3.006,4.41,4.41,0,0,1,3.074-1.334h11.4a4.409,4.409,0,0,1,3.074,1.334,4.191,4.191,0,0,1,1.266,3.006h0a5.935,5.935,0,0,1-1.241,3.441A5.322,5.322,0,0,1,74.105,92.063Z" transform="translate(-58.302 -82.141)" fill="#061e2d"/>
        </g>
        <g id="Group_20" data-name="Group 20" transform="translate(0.77 0.77)">
          <g id="Group_19" data-name="Group 19">
            <path id="Path_11" data-name="Path 11" d="M61.776,87.565a3.656,3.656,0,0,1,.767-1.115,4.006,4.006,0,0,1,1.155-.8,3.31,3.31,0,0,1,1.374-.305h2.391a.4.4,0,0,1,.31.659,18,18,0,0,0-3.359,6.878.4.4,0,0,1-.625.221l0,0a5.8,5.8,0,0,1-1.192-1.2A5.178,5.178,0,0,1,61.5,88.91,3.351,3.351,0,0,1,61.776,87.565Z" transform="translate(-61.502 -85.341)" fill="#133e54"/>
          </g>
        </g>
        <g id="Group_21" data-name="Group 21" transform="translate(2.739 3.15)">
          <path id="Path_12" data-name="Path 12" d="M73.571,98.167a.664.664,0,0,1-.664-.664.95.95,0,1,0-1.9,0,.664.664,0,0,1-1.328,0,2.278,2.278,0,1,1,4.556,0A.664.664,0,0,1,73.571,98.167Z" transform="translate(-69.679 -95.225)" fill="#fff"/>
        </g>
        <g id="Group_22" data-name="Group 22" transform="translate(12.784 3.15)">
          <path id="Path_13" data-name="Path 13" d="M115.291,98.167a.664.664,0,0,1-.664-.664.95.95,0,1,0-1.9,0,.664.664,0,0,1-1.328,0,2.278,2.278,0,1,1,4.556,0A.664.664,0,0,1,115.291,98.167Z" transform="translate(-111.399 -95.225)" fill="#fff"/>
        </g>
      </g>
    </g>
    <path id="Path_107" data-name="Path 107" d="M14.4-.064h-2.23L11.99-1.677a4.108,4.108,0,0,1-1.6,1.364A5.537,5.537,0,0,1,7.829.234a6.87,6.87,0,0,1-5-2.011A7.136,7.136,0,0,1,.78-7.113,7.051,7.051,0,0,1,2.9-12.449,7.119,7.119,0,0,1,8.008-14.48a6.777,6.777,0,0,1,4.231,1.254,6.161,6.161,0,0,1,2.22,3.086L11.831-9.2a3.857,3.857,0,0,0-1.284-1.9,3.83,3.83,0,0,0-2.539-.806,4.42,4.42,0,0,0-3.116,1.234A4.635,4.635,0,0,0,3.568-7.113,4.8,4.8,0,0,0,4.852-3.549,4.331,4.331,0,0,0,8.028-2.275a3.762,3.762,0,0,0,2.688-.886,3.336,3.336,0,0,0,1.1-1.862H7.351V-7.412H14.4ZM22.941-9.9v2.668a4.052,4.052,0,0,0-.8-.08,2.585,2.585,0,0,0-1.832.647,2.783,2.783,0,0,0-.7,2.121v4.48H16.968v-9.8h2.569v1.454A2.775,2.775,0,0,1,22.324-9.94Q22.543-9.94,22.941-9.9Zm1.334,7.168a2.611,2.611,0,0,1,.816-2.011A3.888,3.888,0,0,1,27.2-5.7l2.409-.358q.737-.1.737-.7a1.142,1.142,0,0,0-.428-.916A1.858,1.858,0,0,0,28.7-8.029a1.857,1.857,0,0,0-1.324.458,1.712,1.712,0,0,0-.548,1.135l-2.35-.5a3.445,3.445,0,0,1,1.254-2.25,4.314,4.314,0,0,1,2.947-.976A4.374,4.374,0,0,1,31.9-9.114a3.645,3.645,0,0,1,1.035,2.678v4.818a9.011,9.011,0,0,0,.119,1.553H30.627a5.518,5.518,0,0,1-.1-1.175A3.192,3.192,0,0,1,27.64.214,3.4,3.4,0,0,1,25.2-.662,2.759,2.759,0,0,1,24.275-2.732Zm3.922.976a2.268,2.268,0,0,0,1.543-.528,2.2,2.2,0,0,0,.607-1.742v-.438l-2.21.338q-1.215.179-1.215,1.234a1.08,1.08,0,0,0,.338.806A1.287,1.287,0,0,0,28.2-1.757ZM38.253-.064H35.6v-9.8h2.529v1.195a2.64,2.64,0,0,1,1.195-1.075,3.775,3.775,0,0,1,1.673-.4,2.917,2.917,0,0,1,2.907,1.633,3.464,3.464,0,0,1,3.106-1.633,3.6,3.6,0,0,1,2.519.936,3.587,3.587,0,0,1,1.025,2.788V-.064H47.989V-5.878a2.016,2.016,0,0,0-.428-1.344,1.61,1.61,0,0,0-1.3-.508,1.677,1.677,0,0,0-1.314.558,1.988,1.988,0,0,0-.5,1.374V-.064H41.817V-5.878a1.985,1.985,0,0,0-.438-1.344,1.616,1.616,0,0,0-1.294-.508,1.715,1.715,0,0,0-1.334.548,1.979,1.979,0,0,0-.5,1.384Zm17.641,0H53.246v-9.8h2.529v1.195a2.64,2.64,0,0,1,1.195-1.075,3.775,3.775,0,0,1,1.673-.4,2.917,2.917,0,0,1,2.907,1.633,3.464,3.464,0,0,1,3.106-1.633,3.6,3.6,0,0,1,2.519.936A3.587,3.587,0,0,1,68.2-6.416V-.064H65.63V-5.878A2.015,2.015,0,0,0,65.2-7.222a1.61,1.61,0,0,0-1.3-.508,1.677,1.677,0,0,0-1.314.558,1.988,1.988,0,0,0-.5,1.374V-.064H59.458V-5.878a1.985,1.985,0,0,0-.438-1.344,1.616,1.616,0,0,0-1.294-.508,1.715,1.715,0,0,0-1.334.548,1.979,1.979,0,0,0-.5,1.384ZM74.092,3.8H71.285l2.31-5.1L69.433-9.861H72.4l2.608,5.734,2.409-5.734h2.827Zm26.123-8.223,2.549-9.756h2.807l-3.9,14.117H98.842L95.616-10.119,92.391-.064H89.524L85.6-14.181h2.907L91.1-4.465l3.126-9.717H97.07Zm5.814,1.692a2.611,2.611,0,0,1,.816-2.011,3.888,3.888,0,0,1,2.111-.956l2.409-.358q.737-.1.737-.7a1.141,1.141,0,0,0-.428-.916,1.858,1.858,0,0,0-1.225-.358,1.857,1.857,0,0,0-1.324.458,1.712,1.712,0,0,0-.548,1.135l-2.35-.5a3.445,3.445,0,0,1,1.254-2.25,4.314,4.314,0,0,1,2.947-.976,4.374,4.374,0,0,1,3.226,1.045,3.645,3.645,0,0,1,1.035,2.678v4.818a9.01,9.01,0,0,0,.119,1.553h-2.429a5.517,5.517,0,0,1-.1-1.175A3.192,3.192,0,0,1,109.395.214a3.4,3.4,0,0,1-2.439-.876A2.759,2.759,0,0,1,106.03-2.732Zm3.922.976a2.268,2.268,0,0,0,1.543-.528,2.2,2.2,0,0,0,.607-1.742v-.438l-2.21.338q-1.215.179-1.215,1.234a1.08,1.08,0,0,0,.338.806A1.287,1.287,0,0,0,109.952-1.757ZM120.007-.064h-2.648v-9.8h2.529v1.195a2.64,2.64,0,0,1,1.195-1.075,3.775,3.775,0,0,1,1.673-.4,2.917,2.917,0,0,1,2.907,1.633,3.464,3.464,0,0,1,3.106-1.633,3.6,3.6,0,0,1,2.519.936,3.587,3.587,0,0,1,1.025,2.788V-.064h-2.569V-5.878a2.015,2.015,0,0,0-.428-1.344,1.61,1.61,0,0,0-1.3-.508,1.677,1.677,0,0,0-1.314.558,1.988,1.988,0,0,0-.5,1.374V-.064h-2.628V-5.878a1.985,1.985,0,0,0-.438-1.344,1.616,1.616,0,0,0-1.294-.508,1.715,1.715,0,0,0-1.334.548,1.979,1.979,0,0,0-.5,1.384Zm17.641,0H135v-9.8h2.529v1.195a2.64,2.64,0,0,1,1.195-1.075,3.775,3.775,0,0,1,1.673-.4A2.917,2.917,0,0,1,143.3-8.507a3.464,3.464,0,0,1,3.106-1.633,3.6,3.6,0,0,1,2.519.936,3.587,3.587,0,0,1,1.025,2.788V-.064h-2.569V-5.878a2.016,2.016,0,0,0-.428-1.344,1.61,1.61,0,0,0-1.3-.508,1.677,1.677,0,0,0-1.314.558,1.988,1.988,0,0,0-.5,1.374V-.064h-2.628V-5.878a1.985,1.985,0,0,0-.438-1.344,1.616,1.616,0,0,0-1.294-.508,1.715,1.715,0,0,0-1.334.548,1.979,1.979,0,0,0-.5,1.384Zm18.2,3.863H153.04l2.31-5.1-4.161-8.562h2.967l2.608,5.734,2.409-5.734H162Z" transform="translate(36.72 20.276)" fill="#061e2d"/>
  </g>
</svg>
