<svg xmlns="http://www.w3.org/2000/svg" width="161" height="93.699" viewBox="0 0 161 93.699"><defs><style>.a,.d{fill:#fff;}.b{fill:#061e2d;}.c{fill:#133e54;}.d{font-size:20px;font-family:CircularStd-Medium, Circular Std Medium;font-weight:500;}</style></defs><g transform="translate(-975.801 -21.301)"><g transform="translate(1025.308 21.301)"><path class="a" d="M5.166,47.262A30.283,30.283,0,1,1,17.5,57.813l-16.05,4.5Z" transform="translate(0 0)"/><g transform="translate(8.328 20.904)"><g transform="translate(0 0)"><path class="b" d="M92.93,103.883a62.233,62.233,0,0,1-25.26,0,11.663,11.663,0,0,1-6.648-4.693A13,13,0,0,1,58.3,91.65h0a9.184,9.184,0,0,1,2.774-6.586,9.663,9.663,0,0,1,6.735-2.923H92.789a9.661,9.661,0,0,1,6.735,2.923A9.184,9.184,0,0,1,102.3,91.65h0a13,13,0,0,1-2.72,7.539A11.661,11.661,0,0,1,92.93,103.883Z" transform="translate(-58.302 -82.141)"/></g><g transform="translate(1.688 1.688)"><path class="c" d="M62.1,90.214a8.012,8.012,0,0,1,1.68-2.444,8.777,8.777,0,0,1,2.531-1.759,7.252,7.252,0,0,1,3.011-.669h5.239a.881.881,0,0,1,.678,1.444,39.432,39.432,0,0,0-7.36,15.072.881.881,0,0,1-1.368.484l-.011-.008A12.7,12.7,0,0,1,63.89,99.7,11.346,11.346,0,0,1,61.5,93.16,7.342,7.342,0,0,1,62.1,90.214Z" transform="translate(-61.502 -85.341)"/></g><g transform="translate(6.002 6.903)"><path class="a" d="M78.206,101.671a1.455,1.455,0,0,1-1.455-1.455,2.081,2.081,0,1,0-4.162,0,1.455,1.455,0,0,1-2.91,0,4.991,4.991,0,1,1,9.982,0A1.455,1.455,0,0,1,78.206,101.671Z" transform="translate(-69.679 -95.225)"/></g><g transform="translate(28.012 6.903)"><path class="a" d="M119.926,101.671a1.455,1.455,0,0,1-1.455-1.455,2.081,2.081,0,1,0-4.162,0,1.455,1.455,0,0,1-2.91,0,4.991,4.991,0,1,1,9.982,0A1.455,1.455,0,0,1,119.926,101.671Z" transform="translate(-111.399 -95.225)"/></g></g></g><text class="d" transform="translate(975.801 111)"><tspan x="0" y="0">Grammy Wammy</tspan></text></g></svg>