<svg xmlns="http://www.w3.org/2000/svg" xmlns:xlink="http://www.w3.org/1999/xlink" width="199.246" height="30.651" viewBox="0 0 199.246 30.651"><defs><style>.a{stroke:rgba(0,0,0,0);stroke-miterlimit:10;fill:url(#a);}.b,.e{fill:#061e2d;}.c{fill:#133e54;}.d{fill:#fff;}.e{font-size:20px;font-family:CircularStd-Bold, Circular Std Bold;font-weight:700;}</style><linearGradient id="a" x1="0.2" y1="0.946" x2="0.842" y2="0.054" gradientUnits="objectBoundingBox"><stop offset="0" stop-color="#fec053"/><stop offset="0.327" stop-color="#f2203e"/><stop offset="0.648" stop-color="#b729a8"/><stop offset="1" stop-color="#5342d6"/></linearGradient></defs><g transform="translate(-1356.373 -23.5)"><g transform="translate(1356.873 24)"><path class="a" d="M2.441,22.327a14.306,14.306,0,1,1,5.825,4.984L.684,29.438Z" transform="translate(0 0)"/><g transform="translate(3.934 9.875)"><g transform="translate(0 0)"><path class="b" d="M74.661,92.412a29.4,29.4,0,0,1-11.933,0A5.51,5.51,0,0,1,59.587,90.2,6.143,6.143,0,0,1,58.3,86.633h0a4.339,4.339,0,0,1,1.311-3.111,4.565,4.565,0,0,1,3.182-1.381h11.8a4.564,4.564,0,0,1,3.182,1.381,4.339,4.339,0,0,1,1.311,3.111h0A6.143,6.143,0,0,1,77.8,90.2,5.509,5.509,0,0,1,74.661,92.412Z" transform="translate(-58.302 -82.141)"/></g><g transform="translate(0.798 0.798)"><path class="c" d="M61.786,87.643a3.785,3.785,0,0,1,.794-1.155,4.146,4.146,0,0,1,1.2-.831,3.426,3.426,0,0,1,1.422-.316h2.475a.416.416,0,0,1,.321.682,18.628,18.628,0,0,0-3.477,7.12.416.416,0,0,1-.646.229l0,0a6,6,0,0,1-1.234-1.246A5.36,5.36,0,0,1,61.5,89.035,3.469,3.469,0,0,1,61.786,87.643Z" transform="translate(-61.502 -85.341)"/></g><g transform="translate(2.835 3.261)"><path class="d" d="M73.707,98.27a.687.687,0,0,1-.687-.687.983.983,0,0,0-1.966,0,.687.687,0,0,1-1.375,0,2.358,2.358,0,1,1,4.716,0A.687.687,0,0,1,73.707,98.27Z" transform="translate(-69.679 -95.225)"/></g><g transform="translate(13.233 3.261)"><path class="d" d="M115.428,98.27a.687.687,0,0,1-.687-.687.983.983,0,1,0-1.966,0,.687.687,0,0,1-1.375,0,2.358,2.358,0,1,1,4.716,0A.687.687,0,0,1,115.428,98.27Z" transform="translate(-111.399 -95.225)"/></g></g></g><text class="e" transform="translate(1392.619 45)"><tspan x="0" y="0">Grammy Wammy</tspan></text></g></svg>