<svg xmlns="http://www.w3.org/2000/svg" width="159.44" height="93.639" viewBox="0 0 159.44 93.639">
  <g id="Group_867" data-name="Group 867" transform="translate(-976.641 -21.301)">
    <g id="Group_866" data-name="Group 866" transform="translate(1025.308 21.301)">
      <path id="Union_2" data-name="Union 2" d="M5.166,47.262A30.283,30.283,0,1,1,17.5,57.813l-16.05,4.5Z" transform="translate(0 0)" fill="#fff"/>
      <g id="Group_23" data-name="Group 23" transform="translate(8.328 20.904)">
        <g id="Group_18" data-name="Group 18" transform="translate(0 0)">
          <path id="Path_10" data-name="Path 10" d="M92.93,103.883a62.233,62.233,0,0,1-25.26,0,11.663,11.663,0,0,1-6.648-4.693A13,13,0,0,1,58.3,91.65h0a9.184,9.184,0,0,1,2.774-6.586,9.663,9.663,0,0,1,6.735-2.923H92.789a9.661,9.661,0,0,1,6.735,2.923A9.184,9.184,0,0,1,102.3,91.65h0a13,13,0,0,1-2.72,7.539A11.661,11.661,0,0,1,92.93,103.883Z" transform="translate(-58.302 -82.141)" fill="#061e2d"/>
        </g>
        <g id="Group_20" data-name="Group 20" transform="translate(1.688 1.688)">
          <g id="Group_19" data-name="Group 19">
            <path id="Path_11" data-name="Path 11" d="M62.1,90.214a8.012,8.012,0,0,1,1.68-2.444,8.777,8.777,0,0,1,2.531-1.759,7.252,7.252,0,0,1,3.011-.669h5.239a.881.881,0,0,1,.678,1.444,39.432,39.432,0,0,0-7.36,15.072.881.881,0,0,1-1.368.484l-.011-.008A12.7,12.7,0,0,1,63.89,99.7,11.346,11.346,0,0,1,61.5,93.16,7.342,7.342,0,0,1,62.1,90.214Z" transform="translate(-61.502 -85.341)" fill="#133e54"/>
          </g>
        </g>
        <g id="Group_21" data-name="Group 21" transform="translate(6.002 6.903)">
          <path id="Path_12" data-name="Path 12" d="M78.206,101.671a1.455,1.455,0,0,1-1.455-1.455,2.081,2.081,0,1,0-4.162,0,1.455,1.455,0,0,1-2.91,0,4.991,4.991,0,1,1,9.982,0A1.455,1.455,0,0,1,78.206,101.671Z" transform="translate(-69.679 -95.225)" fill="#fff"/>
        </g>
        <g id="Group_22" data-name="Group 22" transform="translate(28.012 6.903)">
          <path id="Path_13" data-name="Path 13" d="M119.926,101.671a1.455,1.455,0,0,1-1.455-1.455,2.081,2.081,0,1,0-4.162,0,1.455,1.455,0,0,1-2.91,0,4.991,4.991,0,1,1,9.982,0A1.455,1.455,0,0,1,119.926,101.671Z" transform="translate(-111.399 -95.225)" fill="#fff"/>
        </g>
      </g>
    </g>
    <path id="Path_58" data-name="Path 58" d="M14.28,0H12.34l-.18-1.8A4.131,4.131,0,0,1,10.52-.31,5.571,5.571,0,0,1,7.82.3,6.779,6.779,0,0,1,2.88-1.71,7.224,7.224,0,0,1,.84-7.1a7.558,7.558,0,0,1,1.03-3.96A6.747,6.747,0,0,1,4.5-13.63a7.3,7.3,0,0,1,3.48-.85,6.812,6.812,0,0,1,4.13,1.22,6.046,6.046,0,0,1,2.27,3.1l-2.26.86a4.114,4.114,0,0,0-1.46-2.12,4.233,4.233,0,0,0-2.68-.84,4.615,4.615,0,0,0-3.3,1.34A5.039,5.039,0,0,0,3.28-7.1,5.2,5.2,0,0,0,4.64-3.27,4.5,4.5,0,0,0,7.96-1.9a3.968,3.968,0,0,0,2.93-1.01,3.582,3.582,0,0,0,1.13-2.17H7.34v-2.1h6.94Zm8.4-9.8v2.36a5.131,5.131,0,0,0-.76-.06q-2.62,0-2.62,2.86V0H16.98V-9.74h2.26v1.56a2.62,2.62,0,0,1,1.1-1.23,3.311,3.311,0,0,1,1.72-.45A3.154,3.154,0,0,1,22.68-9.8Zm1.36,7.16a2.583,2.583,0,0,1,.81-1.99,3.909,3.909,0,0,1,2.13-.95l2.5-.38q.72-.1.72-.7a1.366,1.366,0,0,0-.46-1.07,2.02,2.02,0,0,0-1.38-.41,1.958,1.958,0,0,0-1.4.49,1.955,1.955,0,0,0-.6,1.27l-2.12-.48A3.309,3.309,0,0,1,25.5-9.11a4.3,4.3,0,0,1,2.84-.93,4.241,4.241,0,0,1,3.13,1.02A3.566,3.566,0,0,1,32.48-6.4v4.84A8.227,8.227,0,0,0,32.6,0H30.44a4.814,4.814,0,0,1-.1-1.24,3.281,3.281,0,0,1-3,1.54,3.315,3.315,0,0,1-2.39-.87A2.767,2.767,0,0,1,24.04-2.64Zm3.74,1.12a2.551,2.551,0,0,0,1.75-.59,2.453,2.453,0,0,0,.67-1.93v-.44l-2.54.38q-1.3.22-1.3,1.32a1.2,1.2,0,0,0,.38.89A1.427,1.427,0,0,0,27.78-1.52ZM37.58,0h-2.3V-9.74H37.5V-8.5a2.71,2.71,0,0,1,1.21-1.12,3.73,3.73,0,0,1,1.67-.4,3.519,3.519,0,0,1,1.76.44A2.711,2.711,0,0,1,43.3-8.3a3.417,3.417,0,0,1,3.16-1.72,3.431,3.431,0,0,1,2.44.94,3.608,3.608,0,0,1,1,2.76V0H47.66V-5.94a2.155,2.155,0,0,0-.47-1.45,1.752,1.752,0,0,0-1.41-.55,1.875,1.875,0,0,0-1.46.62,2.212,2.212,0,0,0-.56,1.54V0H41.48V-5.94a2.155,2.155,0,0,0-.47-1.45,1.752,1.752,0,0,0-1.41-.55,1.882,1.882,0,0,0-1.47.61,2.227,2.227,0,0,0-.55,1.55ZM55.04,0h-2.3V-9.74h2.22V-8.5a2.71,2.71,0,0,1,1.21-1.12,3.73,3.73,0,0,1,1.67-.4,3.519,3.519,0,0,1,1.76.44A2.711,2.711,0,0,1,60.76-8.3a3.417,3.417,0,0,1,3.16-1.72,3.431,3.431,0,0,1,2.44.94,3.608,3.608,0,0,1,1,2.76V0H65.12V-5.94a2.155,2.155,0,0,0-.47-1.45,1.752,1.752,0,0,0-1.41-.55,1.875,1.875,0,0,0-1.46.62,2.212,2.212,0,0,0-.56,1.54V0H58.94V-5.94a2.155,2.155,0,0,0-.47-1.45,1.752,1.752,0,0,0-1.41-.55,1.882,1.882,0,0,0-1.47.61,2.227,2.227,0,0,0-.55,1.55ZM73.06,3.94H70.58l2.34-5.1L68.76-9.74h2.62l2.8,6.16L76.8-9.74h2.46ZM99.24-3.74l2.78-10.44h2.48L100.52,0H98.04L94.6-10.72,91.16,0H88.7L84.68-14.18H87.2L90.04-3.82l3.32-10.36h2.5Zm5.82,1.1a2.583,2.583,0,0,1,.81-1.99A3.909,3.909,0,0,1,108-5.58l2.5-.38q.72-.1.72-.7a1.366,1.366,0,0,0-.46-1.07,2.02,2.02,0,0,0-1.38-.41,1.958,1.958,0,0,0-1.4.49,1.955,1.955,0,0,0-.6,1.27l-2.12-.48a3.309,3.309,0,0,1,1.26-2.25,4.3,4.3,0,0,1,2.84-.93,4.241,4.241,0,0,1,3.13,1.02A3.566,3.566,0,0,1,113.5-6.4v4.84A8.228,8.228,0,0,0,113.62,0h-2.16a4.813,4.813,0,0,1-.1-1.24,3.281,3.281,0,0,1-3,1.54,3.315,3.315,0,0,1-2.39-.87A2.767,2.767,0,0,1,105.06-2.64Zm3.74,1.12a2.551,2.551,0,0,0,1.75-.59,2.453,2.453,0,0,0,.67-1.93v-.44l-2.54.38q-1.3.22-1.3,1.32a1.2,1.2,0,0,0,.38.89A1.427,1.427,0,0,0,108.8-1.52ZM118.6,0h-2.3V-9.74h2.22V-8.5a2.71,2.71,0,0,1,1.21-1.12,3.73,3.73,0,0,1,1.67-.4,3.519,3.519,0,0,1,1.76.44,2.711,2.711,0,0,1,1.16,1.28,3.417,3.417,0,0,1,3.16-1.72,3.431,3.431,0,0,1,2.44.94,3.608,3.608,0,0,1,1,2.76V0h-2.24V-5.94a2.155,2.155,0,0,0-.47-1.45,1.752,1.752,0,0,0-1.41-.55,1.875,1.875,0,0,0-1.46.62,2.212,2.212,0,0,0-.56,1.54V0H122.5V-5.94a2.155,2.155,0,0,0-.47-1.45,1.752,1.752,0,0,0-1.41-.55,1.882,1.882,0,0,0-1.47.61,2.227,2.227,0,0,0-.55,1.55Zm17.46,0h-2.3V-9.74h2.22V-8.5a2.71,2.71,0,0,1,1.21-1.12,3.73,3.73,0,0,1,1.67-.4,3.519,3.519,0,0,1,1.76.44,2.711,2.711,0,0,1,1.16,1.28,3.417,3.417,0,0,1,3.16-1.72,3.431,3.431,0,0,1,2.44.94,3.608,3.608,0,0,1,1,2.76V0h-2.24V-5.94a2.155,2.155,0,0,0-.47-1.45,1.752,1.752,0,0,0-1.41-.55,1.875,1.875,0,0,0-1.46.62,2.212,2.212,0,0,0-.56,1.54V0h-2.28V-5.94a2.155,2.155,0,0,0-.47-1.45,1.752,1.752,0,0,0-1.41-.55,1.882,1.882,0,0,0-1.47.61,2.227,2.227,0,0,0-.55,1.55Zm18.02,3.94H151.6l2.34-5.1-4.16-8.58h2.62l2.8,6.16,2.62-6.16h2.46Z" transform="translate(975.801 111)" fill="#fff"/>
  </g>
</svg>
